<?xml version="1.0" encoding="UTF-8"?>
<svg id="Layer_1" xmlns="http://www.w3.org/2000/svg" version="1.1" viewBox="0 0 224.91 169.9">
  <!-- Generator: Adobe Illustrator 29.3.1, SVG Export Plug-In . SVG Version: 2.1.0 Build 151)  -->
  <defs>
    <style>
      .st0 {
        fill: none;
      }

      .st1 {
        fill: #176766;
      }

      .st2, .st3 {
        fill: #fff;
      }

      .st2, .st4 {
        fill-rule: evenodd;
      }

      .st5 {
        fill: #ef72aa;
      }

      .st6 {
        fill: #42a2a1;
      }

      .st7 {
        fill: #26194f;
      }

      .st8 {
        fill: #99ca5b;
      }

      .st9 {
        opacity: .35;
      }

      .st10 {
        opacity: .6;
      }

      .st11 {
        opacity: .2;
      }

      .st12 {
        opacity: .3;
      }

      .st13 {
        fill: #f6a865;
      }

      .st4, .st14 {
        fill: #08262b;
      }

      .st15 {
        fill: #ed3734;
      }

      .st16 {
        fill: #f48220;
      }
    </style>
  </defs>
  <g class="st11">
    <ellipse class="st14" cx="173.04" cy="82.89" rx="39.88" ry="5.86"/>
  </g>
  <g>
    <g>
      <g>
        <g>
          <circle class="st6" cx="162.01" cy="44.81" r="1.64"/>
          <path class="st14" d="M162.01,47.04c-1.23,0-2.23-1-2.23-2.23s1-2.23,2.23-2.23,2.23,1,2.23,2.23-1,2.23-2.23,2.23ZM162.01,43.77c-.57,0-1.04.47-1.04,1.04s.47,1.04,1.04,1.04,1.04-.47,1.04-1.04-.47-1.04-1.04-1.04Z"/>
        </g>
        <path class="st15" d="M208.5,60.5c.12-1.34-.88-2.6-2.12-3.13-1.24-.53-2.65-.46-3.97-.19-1.32.27-2.6.71-3.93.91-4.19.63-8.44-1.29-11.59-4.13-3.15-2.84-5.38-6.53-7.2-10.26,4.04-2.38,9.6-1.81,13.07,1.34,1.8,1.64,3.11,3.89,5.28,4.99,1.42.72,3.06.85,4.59,1.27,2,.56,3.89,1.68,5.09,3.38,1.2,1.69,1.62,3.99.77,5.82Z"/>
        <path class="st6" d="M208.5,60.5c.12-1.34-.88-2.6-2.12-3.13-1.24-.53-2.65-.46-3.97-.19-1.32.27-2.6.71-3.93.91-4.19.63-8.44-1.29-11.59-4.13-3.15-2.84-5.38-6.53-7.2-10.26,4.04-2.38,9.6-1.81,13.07,1.34,1.8,1.64,3.11,3.89,5.28,4.99,1.42.72,3.06.85,4.59,1.27,2,.56,3.89,1.68,5.09,3.38,1.2,1.69,1.62,3.99.77,5.82Z"/>
        <path class="st14" d="M208.5,61.1c-.05,0-.1,0-.15-.02-.28-.07-.46-.34-.44-.63.1-1.13-.81-2.13-1.76-2.53-.95-.41-2.13-.46-3.62-.16-.54.11-1.1.26-1.64.4-.75.2-1.53.4-2.33.52-4,.6-8.4-.96-12.08-4.28-2.73-2.47-5.06-5.78-7.33-10.44-.14-.28-.03-.61.23-.77,4.29-2.53,10.08-1.93,13.77,1.42.67.6,1.27,1.29,1.84,1.95,1.03,1.18,2.01,2.29,3.31,2.95.88.44,1.85.64,2.88.86.53.11,1.07.22,1.61.37,2.3.64,4.22,1.92,5.41,3.61,1.4,1.97,1.72,4.49.82,6.41-.1.21-.31.34-.54.34ZM204.28,56.38c.88,0,1.65.15,2.34.44.71.3,1.31.78,1.74,1.34-.05-1.07-.42-2.18-1.11-3.14-1.04-1.46-2.73-2.58-4.76-3.15-.5-.14-1.02-.25-1.53-.36-1.06-.22-2.15-.45-3.17-.96-1.51-.76-2.6-2.01-3.67-3.23-.56-.64-1.13-1.29-1.75-1.85-3.12-2.83-8.14-3.46-11.89-1.54,2.12,4.25,4.29,7.3,6.81,9.57,3.41,3.08,7.46,4.53,11.1,3.98.73-.11,1.45-.3,2.2-.5.55-.15,1.13-.3,1.71-.41.71-.14,1.37-.21,1.98-.21Z"/>
        <path class="st6" d="M168.5,67.92c-.56,3.98-1.22,8.18-2.09,12.33-.24,1.14-.55,2.37-1.43,3.13-.59.51-1.35.74-2.14.82-.48.05-.98.05-1.45.04-1.54-.06-3.08-.23-4.59-.51h0c-.62-.12-1.24-.26-1.86-.41-.63-.16-1.32-.38-1.65-.94-.43-.71-.11-1.61.22-2.36.14-.31.28-.63.42-.94.05-.1.09-.21.14-.31,1.56-3.45,3.28-6.82,5.16-10.1,1.02-1.78,2.09-3.54,3.2-5.27.16.62.8,1.05,1.43,1.46,1.55,1.02,3.11,2.05,4.66,3.07Z"/>
        <g class="st10">
          <path class="st3" d="M163.42,64.57c-1.05,1.64-2.06,3.31-3.02,5-1.88,3.28-3.6,6.65-5.16,10.1-.05.1-.09.21-.14.31-.14.31-.28.62-.42.94-.31.71-.61,1.55-.29,2.24-.46-.16-.88-.39-1.13-.79-.43-.71-.11-1.61.22-2.36.14-.31.28-.63.42-.94.05-.1.09-.21.14-.31,1.56-3.45,3.28-6.82,5.16-10.1,1.02-1.78,2.09-3.54,3.2-5.27.12.48.54.85,1.02,1.19Z"/>
        </g>
        <path class="st8" d="M168.5,67.92s-.01.08-.02.12c-1.15-.76-2.3-1.52-3.45-2.27-.39-.26-.79-.52-1.07-.83,1.51,1,3.02,1.99,4.54,2.99Z"/>
        <path class="st8" d="M163.96,64.93s-.09-.06-.13-.08c-.14-.09-.28-.18-.41-.28.06-.09.12-.18.17-.27.06.24.19.44.36.63Z"/>
        <path class="st14" d="M161.9,84.83c-.17,0-.35,0-.54-.01-1.55-.06-3.12-.23-4.66-.52,0,0-.02,0-.02,0-.63-.12-1.26-.26-1.9-.42-.79-.2-1.58-.48-2.01-1.21-.63-1.04-.08-2.3.18-2.91.18-.42.37-.84.56-1.26,2.41-5.33,5.23-10.53,8.4-15.44.13-.2.36-.3.59-.26.23.04.42.21.48.44.1.4.68.78,1.18,1.11l.51.34c1.39.91,2.77,1.83,4.16,2.74.19.13.29.35.26.58-.43,3.1-1.13,7.75-2.1,12.37-.27,1.27-.62,2.59-1.62,3.45-.62.54-1.43.85-2.47.96-.3.03-.62.05-.99.05ZM156.87,83.13s.02,0,.02,0c1.49.28,3.01.45,4.51.5.55.02.99,0,1.37-.03.79-.08,1.39-.3,1.82-.68.73-.63,1-1.68,1.24-2.8.93-4.41,1.6-8.85,2.03-11.92-1.28-.84-2.56-1.69-3.84-2.53l-.51-.33c-.36-.24-.78-.51-1.11-.85-2.93,4.64-5.56,9.51-7.81,14.5-.19.41-.37.83-.55,1.24-.28.64-.53,1.36-.26,1.82.22.36.75.53,1.29.67.6.15,1.21.29,1.8.4Z"/>
        <g>
          <path class="st6" d="M193.42,58.33c0,1.46-.19,2.87-.54,4.21-1.75,6.73-7.59,11.68-14.52,11.68-8.31,0-15.06-7.12-15.06-15.9,0-.75.05-1.49.15-2.21,1.02-7.73,7.31-13.69,14.91-13.69,4.52,0,8.57,2.1,11.33,5.43,1.76,2.12,2.99,4.73,3.48,7.62.16.92.24,1.87.24,2.84Z"/>
          <g class="st10">
            <path class="st3" d="M193.42,58.33c0,1.46-.19,2.87-.54,4.21-.61,2.36-1.73,4.51-3.22,6.29,1.02-1.5,1.8-3.2,2.28-5.04.35-1.34.54-2.76.54-4.21,0-.97-.08-1.92-.24-2.84-.49-2.89-1.73-5.5-3.48-7.62-2.76-3.33-6.81-5.43-11.33-5.43s-8.54,2.08-11.29,5.39c2.73-4.02,7.2-6.65,12.24-6.65,4.52,0,8.57,2.1,11.33,5.43,1.76,2.12,2.99,4.73,3.48,7.62.16.92.24,1.87.24,2.84Z"/>
          </g>
          <g class="st11">
            <path class="st14" d="M193.42,58.33c0,1.46-.19,2.87-.54,4.21-1.75,6.73-7.59,11.68-14.52,11.68-8.31,0-15.06-7.12-15.06-15.9,0-.75.05-1.49.15-2.21,1.99,2.61,4.62,4.72,7.63,6.03,5.8,2.51,12.84,1.92,18.15-1.52,1.38-.9,2.68-2.02,3.41-3.5.26-.52.43-1.07.54-1.64.16.92.24,1.87.24,2.84Z"/>
          </g>
          <path class="st14" d="M178.37,74.83c-8.63,0-15.65-7.4-15.65-16.49s7.02-16.49,15.65-16.49c4.52,0,8.81,2.06,11.79,5.65,2.49,3,3.86,6.85,3.86,10.84,0,1.48-.19,2.95-.56,4.36-1.85,7.14-8.06,12.13-15.09,12.13ZM178.37,43.03c-7.98,0-14.46,6.87-14.46,15.3s6.49,15.3,14.46,15.3c6.49,0,12.23-4.62,13.95-11.24.34-1.32.52-2.68.52-4.07,0-3.72-1.27-7.3-3.59-10.09-2.75-3.32-6.71-5.22-10.88-5.22Z"/>
          <path class="st14" d="M192.89,63.14c-.08,0-.17-.02-.24-.05-1.66-.75-2.96-1.3-4.33-1.73-.09-.03-.18-.08-.25-.15-.23-.24-.45-.47-.67-.69-.44-.46-.86-.89-1.25-1.31-.99-1.06-1.39-2.53-1.08-3.95.31-1.4.62-2.72.96-4.17.01-.06.04-.13.08-.18.89-1.42,1.91-2.48,2.9-3.51h.01c.15-.17.37-.23.58-.17.1.03.19.05.29.08.11.03.21.1.28.19,2.49,3,3.86,6.85,3.86,10.84,0,1.48-.19,2.95-.56,4.36-.04.17-.16.31-.32.39-.08.04-.17.06-.26.06ZM188.82,60.28c1.17.38,2.34.86,3.66,1.44.24-1.1.35-2.24.35-3.38,0-3.57-1.18-7.02-3.32-9.76-.84.88-1.64,1.75-2.35,2.87-.33,1.41-.63,2.7-.93,4.06-.23,1.03.06,2.11.79,2.88.39.42.8.84,1.24,1.29.19.19.37.39.57.59Z"/>
        </g>
        <g>
          <path class="st6" d="M161.38,57.88c.5,1.45.47,3.12-.49,4.39-.94,1.24-2.71,1.92-4.41,1.79-1.49-.11-2.96-.86-3.57-2.05-.49-.95-.32-2.16.43-2.95.19-.2.41-.37.67-.5-2.05-1.57-2.6-4.13-1.57-6.16.7-1.38,2-2.44,3.36-3.36.89-.6,1.82-1.15,2.78-1.66,2.41-1.26,5.02-2.21,7.74-2.81-2.72,3.12-5.1,6.26-7.47,9.41,1.06,1.17,2.04,2.46,2.54,3.91Z"/>
          <g class="st10">
            <path class="st3" d="M166.32,44.56c-.44.51-.88,1.02-1.31,1.53-1.8.56-3.54,1.28-5.18,2.14-.96.5-1.89,1.06-2.78,1.66-1.36.92-2.66,1.99-3.36,3.36-1.03,2.03-.48,4.59,1.57,6.16-.26.13-.48.3-.67.5-.75.79-.92,2-.43,2.95.14.28.33.53.56.76-.79-.35-1.45-.91-1.82-1.61-.49-.95-.32-2.16.43-2.95.19-.2.41-.37.67-.5-2.05-1.57-2.6-4.13-1.57-6.16.7-1.38,2-2.44,3.36-3.36.89-.6,1.82-1.15,2.78-1.66,2.41-1.26,5.02-2.21,7.74-2.81Z"/>
          </g>
          <path class="st14" d="M156.9,64.67c-.15,0-.3,0-.45-.02-1.79-.13-3.38-1.06-4.06-2.37-.65-1.26-.33-2.83.67-3.77-1.74-1.72-2.23-4.25-1.14-6.38.81-1.6,2.32-2.76,3.56-3.59,3.15-2.13,6.86-3.71,10.72-4.56.25-.05.51.06.64.28.13.22.11.5-.06.69-2.59,2.97-4.91,6.03-7.15,8.99,1.19,1.36,1.91,2.53,2.33,3.74.63,1.83.42,3.63-.58,4.94-.96,1.27-2.68,2.04-4.47,2.04ZM164.66,45.59c-3.06.87-5.98,2.21-8.52,3.93-1.11.75-2.48,1.79-3.16,3.14-.93,1.85-.36,4.08,1.4,5.42.16.12.25.32.23.52-.02.2-.14.38-.32.47-.95.49-1.33,1.71-.84,2.65.48.94,1.73,1.63,3.09,1.73,1.53.11,3.09-.52,3.89-1.56.75-.99.9-2.39.4-3.83-.4-1.16-1.15-2.3-2.42-3.7-.19-.21-.21-.53-.03-.76,1.99-2.64,4.04-5.35,6.28-8.03Z"/>
          <path class="st14" d="M154.31,58.04c.38.47.84.9,1.37,1.27h0c.14.1.18.3.08.44-.08.12-.23.16-.36.12-.66-.22-1.29-.53-1.89-.95h-.01c-.27-.2-.34-.57-.15-.84.19-.27.56-.34.84-.15.05.03.09.07.13.12Z"/>
          <g class="st11">
            <path class="st14" d="M161.38,57.88c.5,1.45.47,3.12-.49,4.39-.94,1.24-2.71,1.92-4.41,1.79-1.49-.11-2.96-.86-3.57-2.05-.49-.95-.32-2.16.43-2.95.07.03.14.05.22.07.81.22,1.84-.13,2.05-.94.15-.57-.13-1.16-.32-1.72-.8-2.33-.03-4.98,1.41-6.98.55-.77,1.19-1.47,1.88-2.11,2.41-1.26,5.02-2.21,7.74-2.81-2.72,3.12-5.1,6.26-7.47,9.41,1.06,1.17,2.04,2.46,2.54,3.91Z"/>
          </g>
        </g>
        <path class="st7" d="M167.7,70.28c-.21,0-.42-.11-.52-.32-3.12-5.88-3.58-13.12-1.24-19.35.12-.31.46-.46.76-.35.31.12.46.46.35.76-2.22,5.92-1.79,12.79,1.17,18.37.15.29.04.65-.25.8-.09.05-.18.07-.28.07Z"/>
        <g>
          <path class="st16" d="M156.78,83.71c-.62-.12-1.24-.26-1.86-.41-.63-.16-1.32-.38-1.65-.94-.43-.71-.11-1.61.22-2.36.18-.42.37-.83.56-1.25.31-.07.64-.07.95,0,.96.24,1.68,1.11,1.93,2.07.25.94.09,1.95-.14,2.89Z"/>
          <path class="st14" d="M156.78,84.31s-.07,0-.11-.01c-.62-.12-1.26-.26-1.9-.42-.79-.2-1.58-.48-2.01-1.21-.63-1.05-.08-2.3.18-2.91.18-.42.37-.84.56-1.26.08-.17.23-.29.41-.33.41-.09.84-.09,1.23.01,1.11.28,2.03,1.26,2.35,2.49.3,1.13.08,2.3-.14,3.18-.07.27-.31.45-.57.45ZM154.45,79.29c-.14.31-.28.63-.42.95-.28.64-.53,1.36-.26,1.82.22.36.75.53,1.29.67.42.11.84.21,1.26.29.13-.64.2-1.37.02-2.05-.21-.81-.81-1.47-1.5-1.64-.13-.03-.26-.05-.4-.04Z"/>
        </g>
        <g>
          <path class="st16" d="M162.83,84.19c-.48.05-.98.05-1.45.04-1.54-.06-3.08-.23-4.59-.51.27-.85.56-1.72,1.1-2.44.55-.73,1.43-1.27,2.33-1.18.66.07,1.25.46,1.66.98.41.52.65,1.15.8,1.8.1.43.17.88.16,1.32Z"/>
          <path class="st14" d="M161.9,84.83c-.17,0-.35,0-.55-.01-1.56-.06-3.14-.23-4.68-.52-.17-.03-.31-.13-.4-.28-.09-.15-.11-.32-.06-.48.27-.85.58-1.81,1.19-2.61.74-.97,1.84-1.51,2.86-1.41.77.08,1.52.52,2.06,1.2.41.53.71,1.19.91,2.02.13.53.18,1.02.17,1.47,0,.3-.23.54-.53.57-.3.03-.62.05-.99.05ZM162.83,84.19h0,0ZM157.56,83.25c1.27.21,2.56.34,3.84.39.3.01.57.01.81,0-.02-.2-.06-.41-.11-.63-.16-.67-.39-1.18-.69-1.57-.34-.43-.8-.71-1.25-.76-.61-.06-1.32.31-1.8.95-.36.47-.6,1.04-.8,1.61Z"/>
          <g class="st11">
            <path class="st14" d="M168.5,67.92c-.56,3.98-1.22,8.18-2.09,12.33-.24,1.14-.55,2.37-1.43,3.13-.59.51-1.35.74-2.14.82-.48.05-.98.05-1.45.04-1.54-.06-3.08-.23-4.59-.51h0c-.62-.12-1.24-.26-1.86-.41-.63-.16-1.32-.38-1.65-.94-.43-.71-.11-1.61.22-2.36.14-.31.28-.63.42-.94.41.9,1.18,1.64,2.07,2.1,1.09.57,2.35.76,3.58.77,1.4.02,3-.3,3.73-1.5.69-1.13.32-2.62-.37-3.74-.7-1.12-1.69-2.04-2.38-3.16-.89-1.46-1.21-3.15-1.32-4.88,1.02-1.78,2.09-3.54,3.2-5.27.16.62.8,1.05,1.43,1.46,1.55,1.02,3.11,2.05,4.66,3.07Z"/>
          </g>
        </g>
        <g>
          <path class="st6" d="M191.58,82.02c-.34.56-1.02.78-1.65.94-2.11.54-4.28.85-6.46.93-.86.03-1.78,0-2.58-.28-.37-.13-.71-.32-1.01-.58-.88-.76-1.19-1.99-1.43-3.13-.88-4.16-1.54-8.36-2.09-12.33.85-3.35,4.25-6.27,4.41-6.89,1.33,2.07,2.86,4.55,4.38,7.15,1.36,2.33,2.71,4.75,3.91,7.05.7,1.36,1.35,2.67,1.92,3.91.13.29.26.58.39.87.33.75.65,1.66.22,2.36Z"/>
          <g class="st10">
            <path class="st3" d="M191.58,82.02c-.34.56-1.02.78-1.65.94-.03,0-.06.02-.09.02.12-.1.22-.22.3-.35.42-.7.11-1.61-.22-2.36-.12-.28-.25-.57-.39-.87-.56-1.23-1.21-2.55-1.92-3.91-1.2-2.3-2.55-4.72-3.91-7.05-1.35-2.31-2.72-4.54-3.94-6.46.55-.64.96-1.1,1.01-1.3,1.33,2.07,2.86,4.55,4.38,7.15,1.36,2.33,2.71,4.75,3.91,7.05.7,1.36,1.35,2.67,1.92,3.91.13.29.26.58.39.87.33.75.65,1.66.22,2.36Z"/>
          </g>
          <path class="st14" d="M182.94,84.5c-.7,0-1.51-.06-2.24-.32-.45-.16-.86-.39-1.2-.68-1.01-.87-1.36-2.18-1.62-3.45-.75-3.55-1.42-7.48-2.1-12.37-.01-.08,0-.15.01-.23.63-2.48,2.53-4.68,3.67-6,.32-.37.67-.78.75-.92.07-.21.25-.37.47-.41.23-.04.47.07.59.26,3.24,5.04,7.63,12.46,10.25,18.18.14.3.27.59.39.87.4.92.74,1.98.19,2.9h0c-.44.73-1.23,1.01-2.01,1.21-2.15.55-4.36.86-6.58.94-.18,0-.36.01-.56.01ZM176.96,67.62c.68,4.81,1.33,8.68,2.07,12.17.24,1.12.51,2.17,1.24,2.8.23.2.51.35.82.46.75.27,1.66.27,2.36.24,2.14-.08,4.27-.38,6.33-.91.54-.14,1.07-.31,1.29-.67h0c.28-.46.02-1.17-.26-1.82-.12-.28-.25-.57-.38-.86-2.47-5.4-6.53-12.32-9.69-17.29-.11.13-.24.28-.39.46-1.05,1.22-2.8,3.24-3.39,5.41ZM191.58,82.02h0,0ZM180.2,60.53s0,.01,0,.02c0,0,0-.01,0-.02Z"/>
          <g>
            <path class="st16" d="M191.58,82.02c-.34.56-1.02.78-1.65.94-2.11.54-4.28.85-6.46.93-.86.03-1.78,0-2.58-.28,0-.33.02-.65.09-.97.19-.84.71-1.61,1.47-2.02.76-.41,1.74-.4,2.44.09.27-.8.87-1.3,1.56-1.47.69-.16,1.45.03,1.98.48.59-.75,1.49-1.05,2.37-.97.06,0,.12.01.17.02.13.29.26.58.39.87.33.75.65,1.66.22,2.36Z"/>
            <path class="st14" d="M182.94,84.5c-.7,0-1.51-.06-2.24-.32-.23-.08-.39-.3-.39-.54,0-.39.03-.75.11-1.11.24-1.04.9-1.94,1.76-2.41.76-.41,1.68-.47,2.45-.19.38-.63.98-1.07,1.7-1.24.68-.16,1.42-.05,2.04.29.66-.58,1.56-.87,2.5-.78.08,0,.16.02.22.03.19.03.35.16.44.34.14.3.27.59.39.87.4.92.74,1.98.19,2.9h0c-.44.73-1.23,1.01-2.01,1.21-2.15.55-4.36.86-6.58.94-.18,0-.36.01-.56.01ZM181.5,83.17c.65.15,1.37.15,1.95.13,2.14-.08,4.27-.38,6.33-.91.54-.14,1.07-.31,1.29-.67.28-.46.02-1.17-.26-1.82-.08-.18-.16-.36-.24-.55-.69-.02-1.29.25-1.68.75-.1.13-.25.21-.41.22-.16.02-.32-.03-.44-.14-.39-.34-.95-.48-1.46-.36-.53.12-.94.52-1.13,1.08-.06.18-.2.32-.38.38-.18.06-.37.03-.53-.08-.49-.35-1.23-.37-1.81-.06-.57.31-1.01.92-1.17,1.63-.03.13-.05.26-.06.39ZM191.58,82.02h0,0Z"/>
            <path class="st14" d="M185.87,84.05s-.01,0-.02,0c-.33,0-.59-.28-.58-.61.02-.86-.32-1.73-.92-2.35-.23-.23-.22-.61.01-.84.23-.23.61-.22.84.01.83.85,1.29,2.02,1.25,3.21,0,.32-.27.58-.59.58Z"/>
            <path class="st14" d="M189.61,83.07c-.33,0-.59-.26-.59-.59,0-.86-.39-1.73-1.02-2.32-.24-.22-.25-.6-.03-.84.22-.24.6-.25.84-.03.87.81,1.39,2,1.39,3.18,0,.33-.26.59-.59.6h0Z"/>
          </g>
          <g class="st11">
            <path class="st14" d="M191.45,79.66c-.12-.28-.25-.57-.39-.87-.56-1.23-1.21-2.55-1.92-3.91-.11.71-.37,1.4-.78,2-.83,1.22-2.23,2.02-3.7,2.12-.79.05-1.61-.1-2.28-.52-.67-.43-1.17-1.15-1.24-1.94-.07-.85.34-1.66.74-2.41,1.12-2.1,2.24-4.2,3.35-6.3-1.52-2.59-3.05-5.07-4.38-7.15-.16.62-3.56,3.54-4.41,6.89.56,3.98,1.22,8.18,2.09,12.33.24,1.14.55,2.36,1.43,3.13.3.26.64.45,1.01.58.8.28,1.72.31,2.58.28,2.18-.08,4.35-.39,6.46-.93.63-.16,1.32-.38,1.65-.94.42-.7.11-1.61-.22-2.36ZM183.64,82.16c-.68,0-1.23-.4-1.23-.89s.55-.89,1.23-.89,1.23.4,1.23.89-.55.89-1.23.89ZM187.07,81.33c-.79,0-1.42-.36-1.42-.81s.64-.81,1.42-.81,1.42.36,1.42.81-.64.81-1.42.81ZM190.15,80.53c-.58,0-1.06-.29-1.06-.66s.47-.66,1.06-.66,1.06.3,1.06.66-.47.66-1.06.66Z"/>
          </g>
        </g>
        <g>
          <ellipse class="st13" cx="172.17" cy="58.53" rx="13.7" ry="17.83"/>
          <g class="st11">
            <path class="st14" d="M185.87,58.53c0,9.85-6.14,17.83-13.7,17.83-3.39,0-6.49-1.6-8.88-4.25,2.14,1.8,4.69,2.84,7.42,2.84,7.57,0,13.7-7.98,13.7-17.83,0-5.44-1.87-10.31-4.82-13.58,3.77,3.18,6.27,8.7,6.27,14.98Z"/>
          </g>
          <path class="st14" d="M172.17,76.96c-8.82,0-14.3-7.06-14.3-18.43,0-10.16,6.41-18.43,14.3-18.43s14.3,8.27,14.3,18.43-6.41,18.43-14.3,18.43ZM172.17,41.3c-7.23,0-13.11,7.73-13.11,17.24,0,5,1.12,9.24,3.24,12.27,2.31,3.3,5.63,4.97,9.87,4.97,7.23,0,13.11-7.73,13.11-17.24s-5.88-17.24-13.11-17.24Z"/>
        </g>
        <g>
          <path class="st16" d="M180.55,65.46c-1.3,2.55-2.95,5-5.3,6.62-2.36,1.62-5.53,2.26-8.13,1.06-1.71-.79-3-2.28-4.01-3.87-1.01-1.59-1.78-3.32-2.79-4.92-1.01-1.59-2.25-3.07-2.93-4.83-1.08-2.8-.56-6.07.99-8.64.67-1.12,1.7-2.49,3.35-3.69.6-.43,1.27-.84,2.04-1.21,1.99-.94,4.59-1.59,8.04-1.59,1.53,0,3.08.18,4.52.67.72.24,1.41.56,2.05.96,3.03,1.91,4.69,5.55,4.84,9.13.15,3.58-1.04,7.1-2.66,10.3Z"/>
          <g class="st10">
            <path class="st3" d="M183.19,56.9c-.27-3.42-1.91-6.83-4.81-8.65-.64-.41-1.34-.72-2.05-.96-1.44-.48-2.99-.67-4.52-.67-3.45,0-6.05.65-8.04,1.59-.77.37-1.44.77-2.04,1.21-1.65,1.19-2.67,2.57-3.35,3.69-.8,1.32-1.32,2.83-1.5,4.36-.27-2.25.31-4.62,1.5-6.58.67-1.12,1.7-2.49,3.35-3.69.6-.43,1.27-.84,2.04-1.21,1.99-.94,4.59-1.59,8.04-1.59,1.53,0,3.08.18,4.52.67.72.24,1.41.56,2.05.96,3.03,1.91,4.69,5.55,4.84,9.13.02.58.01,1.16-.03,1.73Z"/>
          </g>
          <g class="st11">
            <path class="st14" d="M180.55,65.46c-1.3,2.55-2.95,5-5.3,6.62-2.36,1.62-5.53,2.26-8.13,1.06-1.71-.79-3-2.28-4.01-3.87-1.01-1.59-1.78-3.32-2.79-4.92-1.01-1.59-2.25-3.07-2.93-4.83-1.08-2.8-.56-6.07.99-8.64.67-1.12,1.7-2.49,3.35-3.69-1.75,1.96-3.44,5.52-3.27,8.14.22,3.38,1.91,6.51,6.07,7.21-1.14.11-1.6,1.65-1.2,2.72.4,1.07,1.32,1.86,1.95,2.82.55.83.9,1.81,1.64,2.49,1.1,1.01,2.79,1.06,4.23.7,1.85-.46,3.54-1.51,4.78-2.95,2.2-2.57,2.81-6.1,3.35-9.44.31-1.93.62-3.88.51-5.84-.16-2.96-1.39-5.89-3.46-7.98.72.24,1.41.56,2.05.96,3.03,1.91,4.69,5.55,4.84,9.13.15,3.58-1.04,7.1-2.66,10.3Z"/>
          </g>
          <path class="st14" d="M170.07,74.36c-1.12,0-2.21-.22-3.2-.68-1.59-.74-2.98-2.08-4.26-4.1-.52-.82-.97-1.67-1.42-2.5-.43-.81-.88-1.64-1.37-2.42-.29-.47-.62-.93-.93-1.39-.76-1.1-1.55-2.24-2.06-3.54-1.1-2.84-.71-6.27,1.03-9.16h0c2.71-4.49,7.4-6.77,13.94-6.77,2.75,0,5.07.58,6.89,1.72,2.99,1.88,4.95,5.56,5.11,9.61.13,3.26-.76,6.72-2.73,10.59-1.64,3.22-3.39,5.39-5.5,6.84-1.72,1.18-3.66,1.79-5.51,1.79ZM158.89,51.19c-1.56,2.58-1.91,5.62-.94,8.12.45,1.17,1.17,2.2,1.92,3.3.32.46.65.94.96,1.43.51.81.97,1.67,1.41,2.49.43.81.88,1.65,1.37,2.43,1.15,1.82,2.38,3.02,3.76,3.65,2.2,1.02,5.16.62,7.54-1.01,1.94-1.33,3.56-3.37,5.11-6.4,1.88-3.68,2.73-6.95,2.6-10-.15-3.67-1.9-6.98-4.56-8.66-1.62-1.02-3.73-1.54-6.26-1.54-6.09,0-10.44,2.08-12.92,6.2h0Z"/>
          <path class="st16" d="M170.77,48.63c-3.96.55-7.4-.71-7.69-2.82-.07-.48.04-.97.28-1.43.83-1.58,3.3-2.96,6.35-3.38,3.28-.45,6.21.34,7.28,1.82.22.3.36.64.41,1,.29,2.11-2.68,4.26-6.63,4.81Z"/>
          <path class="st14" d="M168.93,49.35c-1.31,0-2.55-.2-3.59-.58-1.67-.61-2.68-1.64-2.86-2.88h0c-.17-1.25.52-2.51,1.96-3.55,1.33-.97,3.17-1.65,5.18-1.93,4.35-.6,8.02.86,8.36,3.33.17,1.25-.52,2.51-1.96,3.55-1.33.97-3.17,1.65-5.18,1.93-.65.09-1.29.13-1.91.13ZM171.53,41.46c-.56,0-1.15.04-1.74.12-1.82.25-3.47.86-4.64,1.71-1.05.76-1.59,1.65-1.48,2.43h0c.11.78.87,1.49,2.09,1.93,1.36.5,3.12.64,4.94.38,1.82-.25,3.47-.86,4.64-1.71,1.05-.76,1.59-1.65,1.48-2.43-.2-1.46-2.47-2.44-5.28-2.44Z"/>
          <path class="st14" d="M159.93,54.33c1.25.37,2.48.71,3.71.94,1.23.24,2.47.4,3.72.46,1.24.07,2.49.05,3.75-.05,1.26-.1,2.51-.3,3.8-.53-1.11.7-2.36,1.16-3.65,1.45-1.29.29-2.63.39-3.95.32-1.33-.07-2.64-.32-3.89-.75-1.25-.43-2.44-1.03-3.47-1.84Z"/>
          <path class="st14" d="M159.71,60.23c1.1.3,2.15.6,3.21.83,1.06.24,2.12.43,3.18.57,1.07.14,2.14.22,3.22.25,1.09.04,2.18.02,3.31,0-1.02.5-2.14.78-3.27.93-1.13.14-2.29.14-3.42,0-1.13-.15-2.25-.43-3.31-.85-1.06-.43-2.06-.98-2.93-1.72Z"/>
          <path class="st14" d="M161.75,65.84c.96.17,1.87.34,2.78.47.91.13,1.81.23,2.72.3.91.06,1.82.1,2.73.09.92,0,1.84-.05,2.81-.12-.82.54-1.76.85-2.71,1.05-.96.19-1.94.24-2.91.17-.97-.07-1.94-.26-2.86-.57-.92-.32-1.81-.75-2.56-1.37Z"/>
          <path class="st14" d="M167.27,50.36c-.2.4-.37.81-.52,1.23-.07.21-.15.42-.22.62-.06.21-.13.42-.19.63-.24.84-.43,1.69-.56,2.55-.13.86-.22,1.72-.25,2.58-.03.86-.02,1.73.04,2.59l.05.65.07.65c.01.11.02.22.03.32l.05.32.09.64c.08.43.14.86.23,1.28l.13.64.15.64c.4,1.7.93,3.39,1.48,5.09-1-1.49-1.79-3.12-2.38-4.83l-.22-.64-.19-.65c-.13-.43-.22-.88-.32-1.32-.17-.89-.31-1.8-.36-2.71-.05-.91-.05-1.83.03-2.74.08-.91.23-1.82.46-2.7.23-.88.53-1.75.93-2.57.2-.41.41-.81.66-1.19.24-.38.5-.75.81-1.08Z"/>
        </g>
        <g>
          <path class="st6" d="M190.19,54.52c-.35,1.07-.98,2.03-1.61,2.96.32.24.57.52.77.84.41.66.57,1.46.5,2.24-.05.57-.22,1.12-.5,1.61-.86,1.49-2.52,2.38-4.21,2.7-1.65.3-3.47.08-4.79-.95-1.81-1.41-2.28-4.06-1.69-6.27.6-2.21,2.07-4.08,3.62-5.78-1.2-1.19-2.31-2.42-3.42-3.66-.51-.57-1.04-1.19-1.12-1.95-.01-.09-.01-.19,0-.28.02-.31.13-.59.31-.81.08-.1.16-.19.26-.27.5-.41,1.24-.51,1.86-.16,2.59,1.47,5.1,3.01,7.62,4.55.85.52,1.73,1.08,2.23,1.94.57.98.55,2.21.2,3.28Z"/>
          <g class="st10">
            <path class="st3" d="M190.19,54.52c-.35,1.07-.98,2.03-1.61,2.96.32.24.57.52.77.84.41.66.57,1.46.5,2.24-.81-.87-1.83-1.54-2.97-1.9.59-1.08,1.18-2.17,1.5-3.35.32-1.18,1.49-3.48-2.98-5.61-2.52-1.2-4.78-3.46-7.36-4.53.08-.1.16-.19.26-.27.5-.41,1.24-.51,1.86-.16,2.59,1.47,5.1,3.01,7.62,4.55.85.52,1.73,1.08,2.23,1.94.57.98.55,2.21.2,3.28Z"/>
          </g>
          <path class="st14" d="M183.76,65.59c-1.45,0-2.79-.41-3.79-1.2-2.14-1.67-2.49-4.67-1.89-6.89.59-2.18,1.99-4.04,3.37-5.6-1.06-1.07-2.06-2.19-3.04-3.27h0c-.49-.56-1.17-1.31-1.27-2.29-.01-.12-.01-.25,0-.38.05-.73.48-1.38,1.14-1.73.69-.37,1.5-.36,2.17.02,2.59,1.47,5.15,3.04,7.62,4.55h.02c.82.52,1.85,1.14,2.43,2.15.6,1.03.69,2.4.25,3.76-.32.99-.85,1.85-1.4,2.68,1.36,1.38,1.35,3.59.49,5.09-.87,1.51-2.55,2.6-4.61,2.98-.5.09-.99.14-1.47.14ZM179.33,45.13c-.17,0-.35.04-.51.13-.3.16-.49.44-.51.77,0,.06,0,.12,0,.18.06.55.47,1.06.97,1.61h0c1.08,1.22,2.2,2.46,3.39,3.63.23.22.24.59.02.82-1.47,1.61-2.91,3.4-3.48,5.53-.5,1.85-.23,4.31,1.48,5.65,1.07.84,2.65,1.14,4.32.83,1.71-.32,3.1-1.19,3.8-2.41.69-1.19.65-2.99-.6-3.92-.25-.19-.31-.54-.14-.81.6-.89,1.22-1.81,1.54-2.82.34-1.04.28-2.06-.15-2.8-.44-.75-1.28-1.27-2.03-1.73h-.02c-2.46-1.52-5.01-3.09-7.58-4.54h0c-.16-.09-.34-.14-.52-.14Z"/>
          <path class="st14" d="M188.96,57.93c-.35.23-.69.47-1.02.73-.34.26-.68.52-1.03.78-.12.09-.28.06-.37-.05-.07-.1-.07-.23,0-.32.27-.33.53-.67.79-1.01.27-.34.55-.69.84-1.01h0c.22-.25.6-.27.85-.05.25.22.27.6.05.85-.03.04-.08.07-.12.1Z"/>
        </g>
        <g>
          <path class="st6" d="M193.41,15.3c-.79,1.59-2.35,2.78-4.19,2.77-.09,0-.18,0-.28-.01-.37-1.59-.17-3.31.57-4.77.73-1.46,1.99-2.65,3.74-3.36.1.18.2.37.28.56.65,1.52.62,3.33-.11,4.82Z"/>
          <g class="st10">
            <path class="st3" d="M193.52,10.48c-2.18,2-3.71,4.7-4.3,7.59-.09,0-.18,0-.28-.01-.37-1.59-.17-3.31.57-4.77.73-1.46,1.99-2.65,3.74-3.36.1.18.2.37.28.56Z"/>
          </g>
          <path class="st14" d="M189.23,18.66c-.11,0-.22,0-.32-.01-.26-.02-.48-.2-.54-.46-.41-1.74-.19-3.58.61-5.17.83-1.65,2.22-2.91,4.05-3.65.28-.11.59,0,.74.26,1.03,1.8,1.1,4.07.18,5.93-.94,1.91-2.77,3.1-4.71,3.1ZM192.97,10.7c-1.31.64-2.31,1.62-2.93,2.86-.6,1.19-.81,2.6-.61,3.92,1.42-.08,2.74-1,3.44-2.43.65-1.33.68-2.98.09-4.34Z"/>
          <path class="st14" d="M188.82,17.63l2.99-4.51c.08-.12.25-.16.37-.08.11.08.15.22.09.34l-2.42,4.84c-.15.29-.5.41-.8.27-.29-.15-.41-.5-.27-.8.01-.02.02-.04.04-.06Z"/>
          <path class="st6" d="M197.22,22.2s-.04.02-.06.03c-1.59.94-3.64,1.05-5.31.28-1.7-.78-2.96-2.43-2.88-4.39.05-.01.1-.03.15-.04,1.54-.37,3.2-.2,4.64.47,1.48.69,2.71,1.92,3.47,3.65Z"/>
          <g class="st10">
            <path class="st3" d="M197.49,22.2s-.04.02-.06.03c-2.34-1.94-5.11-3.37-8.05-4.15,1.54-.37,3.2-.2,4.64.47,1.48.69,2.71,1.92,3.47,3.65Z"/>
          </g>
          <path class="st14" d="M194.51,23.61c-.9,0-1.8-.19-2.63-.57-2.04-.94-3.31-2.88-3.23-4.95.01-.26.19-.48.44-.55,1.73-.45,3.57-.28,5.19.47,1.67.78,2.97,2.14,3.76,3.94.12.27.02.59-.24.75-.99.6-2.14.91-3.29.91ZM189.84,18.59c.12,1.42,1.07,2.71,2.53,3.38,1.34.62,2.99.6,4.34-.03-.68-1.29-1.69-2.27-2.94-2.85-1.21-.56-2.62-.74-3.93-.5Z"/>
          <path class="st14" d="M189.67,17.98l4.57,2.91c.1.06.13.19.06.29-.06.09-.17.12-.27.08l-4.93-2.24c-.3-.14-.43-.49-.3-.79.14-.3.49-.43.79-.3.02.01.05.03.07.04Z"/>
          <path class="st6" d="M193.23,28.19c-.79,3.61-3.43,6.59-6.53,8.58-3.1,1.99-6.67,3.13-10.3,4.2-1.37,2.55-4.2,4.23-7.09,4.21-2.89-.02-5.71-1.74-6.56-4.26-3.35-.79-6.73-1.72-9.67-3.52-2.93-1.81-5.4-4.62-6.08-8-.46-2.31.04-5.06,1.5-7.06.27-.37.57-.71.9-1.02.15-.14.3-.27.46-.39.13-.1.27-.2.41-.3.27-.18.55-.34.85-.47.07-.37.14-.73.22-1.09,1-4.46,3.45-8.54,6.51-11.87,5.86-6.38,17.38-6.16,21.84-2.59.44.35.86.71,1.27,1.08,3.28,3,5.67,6.76,7.58,11.09.09.2.17.39.26.59.18.42.37.84.55,1.25.35.19.67.4.98.64,1.19.94,2.06,2.24,2.57,3.69.59,1.66.71,3.5.34,5.22Z"/>
          <g class="st11">
            <path class="st14" d="M192.46,21.93s0-.02-.01-.03c-.08-.16-.16-.31-.25-.46-.01-.02-.02-.04-.03-.05-.09-.14-.18-.29-.27-.42-.01-.02-.03-.04-.04-.06-.09-.14-.19-.27-.29-.4-.02-.02-.03-.04-.05-.06-.1-.13-.21-.25-.32-.38-.02-.02-.03-.03-.05-.05-.12-.12-.24-.24-.36-.36-.01-.01-.02-.02-.03-.03-.13-.12-.27-.24-.41-.35-.3-.24-.63-.46-.98-.64-.27-.61-.54-1.23-.81-1.85-1.91-4.34-4.3-8.1-7.58-11.09,2.45,3.89,4.27,8.19,5.33,12.66-1.64.45-3.37.58-5.05.35-2.99-.42-5.73-1.89-8.67-2.57-5.45-1.26-11.18.27-16.26,2.58-2.07.94-4.22,2.04-6.44,2.2-.16.12-.31.26-.46.39-.12.11-.24.23-.35.35-.02.02-.04.05-.06.07-.1.12-.2.23-.3.36-.03.04-.06.07-.08.11-.03.04-.07.09-.1.13,0,0,0,0,0,0-1.45,2-1.96,4.75-1.5,7.06.67,3.38,3.14,6.19,6.08,8,2.93,1.81,6.31,2.74,9.67,3.52.85,2.52,3.67,4.24,6.56,4.26,2.89.02,5.73-1.67,7.09-4.21,3.63-1.07,7.2-2.21,10.3-4.2,3.1-2,5.74-4.98,6.53-8.58.46-2.08.17-4.37-.78-6.26ZM166.03,19.56c1.2-.07,2.35.55,3.26,1.34.91.79,1.63,1.77,2.48,2.63.3.3.61.59.93.86.39.33.22.97-.28,1.06-.6.11-1.19.21-1.79.34-2.22.47-4.4,1.25-6.67,1.31-1.13.03-2.29-.15-3.33-.6-.6-.26-1.04-.68-1.48-1.09.92-.93,1.78-1.92,2.63-2.92,1.15-1.35,2.48-2.82,4.25-2.92ZM182.16,34.94c-2.47,1.34-5.07,2.39-7.75,3.24-1.2,1.89-3.75,3.22-5.99,3.06-2.23-.16-4.33-1.62-5.25-3.66-5.02.01-17.84-4.5-14.56-14.37.14.98.36,1.93.79,2.82.76,1.58,2.3,2.93,4.05,2.91,1.28-.01,2.45-.72,3.46-1.51.24-.19.48-.39.71-.59.14.74.45,1.46.82,1.99.95,1.36,2.42,2.25,3.89,3,1.47.76,3.01,1.43,4.26,2.52.01-2.08,1.95-3.64,3.89-4.39,1.94-.74,4.08-1.02,5.83-2.14.4-.25.76-.55,1.09-.88,1.17.36,2.39.57,3.61.6,1.46.04,2.92-.2,4.34-.63,1.31-.4,2.55.84,2.09,2.14-.64,1.85-2.1,4.12-5.29,5.86Z"/>
          </g>
          <g class="st10">
            <path class="st3" d="M193.42,26.97c-.34-2.1-1.36-4.08-2.99-5.36-.3-.24-.63-.46-.98-.64-.27-.61-.54-1.23-.81-1.84-1.91-4.34-4.3-8.1-7.58-11.09-.41-.37-.83-.73-1.27-1.08-.62-.5-1.38-.93-2.24-1.29,0,.08,0,.16,0,.24-.17.99-1.96,1.5-4.01,1.16-2.05-.35-3.57-1.43-3.41-2.42.01-.06.03-.12.05-.17-4.4.15-9.11,1.68-12.23,5.07-3.06,3.33-5.51,7.41-6.51,11.87-.08.36-.15.72-.22,1.09-.3.14-.58.3-.85.47-.31.2-.6.43-.87.69-1.51,1.41-2.35,3.49-2.53,5.56-.47-2.7.35-5.94,2.43-7.89.27-.26.56-.48.87-.69.27-.18.55-.34.85-.47.07-.37.14-.73.22-1.09,1-4.46,3.45-8.54,6.51-11.87,5.86-6.38,17.38-6.16,21.84-2.59.44.35.86.71,1.27,1.08,3.28,3,5.67,6.76,7.58,11.09.27.62.54,1.23.81,1.85.35.19.67.4.98.64,2.23,1.75,3.32,4.8,3.09,7.69Z"/>
          </g>
          <path class="st14" d="M169.34,45.78s-.03,0-.04,0c-3.09-.02-5.97-1.83-7-4.34-3.05-.72-6.51-1.66-9.53-3.52-3.39-2.09-5.7-5.15-6.35-8.39-.62-3.1.39-7.32,3.52-9.39.21-.14.42-.26.65-.38.06-.29.11-.56.17-.82.95-4.23,3.25-8.43,6.65-12.14,2.77-3.02,6.98-4.87,11.84-5.22,4.31-.31,8.45.68,10.81,2.56,3.69,2.95,6.64,7.01,9.02,12.4l.17.39c.19.43.37.85.56,1.28.31.18.6.38.89.6,2.61,2.05,3.9,5.96,3.12,9.5-.76,3.45-3.17,6.63-6.79,8.96-3.09,1.98-6.59,3.13-10.22,4.2-1.5,2.59-4.46,4.31-7.46,4.31ZM170.82,2.72c-.49,0-.99.02-1.49.05-2.64.19-7.59,1.07-11.05,4.84-3.26,3.55-5.46,7.56-6.36,11.6-.07.32-.15.67-.22,1.06-.03.19-.16.35-.33.43-.27.12-.53.27-.77.43-2.69,1.78-3.55,5.46-3.01,8.17.58,2.92,2.7,5.7,5.81,7.61,2.97,1.83,6.46,2.74,9.49,3.45.2.05.36.19.43.39.75,2.22,3.27,3.84,6,3.85,2.66.01,5.31-1.55,6.57-3.9.08-.14.2-.24.35-.29,3.63-1.07,7.13-2.19,10.15-4.13,3.36-2.16,5.59-5.07,6.27-8.21h0c.68-3.11-.42-6.53-2.69-8.32-.28-.22-.58-.42-.89-.59-.12-.06-.21-.16-.26-.28-.22-.49-.43-.97-.64-1.46l-.17-.39c-2.33-5.29-5.09-9.08-8.67-11.95-1.87-1.5-5.04-2.36-8.49-2.36Z"/>
          <path class="st14" d="M178.53,25.99c-1.16,1.95-2.25,3.72-3.3,5.22-2.21,3.13-4.3,5.03-6.75,4.77-.32-.03-.6-.1-.83-.19-2.47-.92-.55-4.6.55-5.81h0s0,0,0,0c1.71-.81,3.63-1.01,5.47-1.42,1.84-.41,3.74-1.11,4.86-2.57Z"/>
          <path class="st5" d="M175.23,31.2c-2.21,3.13-4.3,5.03-6.75,4.77-.32-.03-.6-.1-.83-.19-.05-.22-.07-.45-.06-.67.03-.79.37-1.54.84-2.17,1.31-1.75,3.7-2.62,5.83-2.12.33.08.66.2.98.37Z"/>
          <path class="st14" d="M168.92,36.59c-.17,0-.34,0-.51-.03-.36-.04-.69-.11-.98-.22-.8-.3-1.32-.87-1.51-1.65-.25-1.02.12-2.24.62-3.26-.4.15-.83.26-1.29.28-1.18.05-2.24-.54-3.08-1-.81-.45-1.62-.9-2.43-1.35l-1.37-.76c-.49-.27-1.11-.61-1.47-1.23-.52-.87-.37-2.06.39-3.25.14-.22.29-.42.43-.62.38-.54.75-1.04.87-1.6.07-.32.39-.52.71-.45.32.07.52.39.45.71-.18.79-.63,1.42-1.06,2.03-.14.2-.28.39-.4.58-.19.29-.78,1.31-.37,2.01.2.34.64.58,1.02.8l1.37.76c.81.45,1.62.9,2.43,1.35.76.42,1.61.89,2.46.86.68-.03,1.32-.37,2.01-.73.24-.12.48-.25.73-.37,1.34-.63,2.78-.91,4.18-1.17.47-.09.95-.18,1.42-.29,2.24-.5,3.67-1.24,4.52-2.35.19-.25.54-.31.8-.13.26.18.34.52.18.79-1.25,2.09-2.29,3.79-3.33,5.25-1.78,2.51-3.96,5.04-6.79,5.04ZM168.56,30.45c-.72.85-1.77,2.78-1.48,3.96.1.4.34.66.77.82.2.07.43.12.69.15,1.96.21,3.82-1.14,6.21-4.52.55-.78,1.1-1.63,1.69-2.57-.75.34-1.62.62-2.64.84-.48.11-.98.2-1.45.29-1.34.26-2.61.5-3.78,1.03Z"/>
          <g class="st11">
            <path class="st14" d="M158.12,23.82c-.47.47-.97.92-1.56,1.21-.6.29-1.31.39-1.92.15-1.08-.43-1.52-1.83-1.19-2.95.32-1.12,1.21-1.98,2.14-2.69,1.74-1.32,3.76-2.27,5.88-2.77.42-.1.9-.17,1.23.1.42.34.35,1.03.04,1.46-.37.52-.98.79-1.4,1.26-.33.37-.5.81-.74,1.23-.64,1.1-1.57,2.09-2.47,2.99Z"/>
          </g>
          <path class="st14" d="M173.83,19.92c0-1.97,1.24-3.57,2.78-3.57s2.78,1.6,2.78,3.57-1.24,3.57-2.78,3.57-2.78-1.6-2.78-3.57"/>
          <path class="st3" d="M176.72,19.11c0-.7.34-1.26.76-1.26s.76.57.76,1.26-.34,1.26-.76,1.26-.76-.57-.76-1.26"/>
          <g class="st9">
            <path class="st3" d="M174.71,21.19c-.13-.51-.05-.98.17-1.03.22-.05.5.32.63.83.13.51.05.98-.17,1.03-.22.05-.5-.32-.63-.83"/>
          </g>
          <path class="st14" d="M160.07,21.36c-1,1.23-1.95,2.52-3.2,3.47-.77-.51-1.3-1.59-1.3-2.85,0-1.74,1.02-3.15,2.27-3.15,1.1,0,2.02,1.09,2.23,2.53Z"/>
          <path class="st3" d="M157.92,20.96c0-.59.28-1.07.62-1.07s.62.48.62,1.07-.28,1.07-.62,1.07-.62-.48-.62-1.07"/>
          <g class="st9">
            <path class="st3" d="M156.12,23.06c-.13-.51-.05-.98.17-1.03.22-.05.5.32.63.83.13.51.05.98-.17,1.03-.22.05-.5-.32-.63-.83"/>
          </g>
        </g>
        <g>
          <path class="st6" d="M182.04,41.32c-1.54.41-3.01,1.05-4.36,1.9-.36.23-.75.54-.73.97.02.39.42.67.81.71.39.04.77-.1,1.14-.23,1.64-.59,3.33-1.08,5.07-1.15,1.74-.07,3.53.31,4.96,1.31,2.1,1.47,3.15,4.09,5.22,5.61,3.12,2.29,7.74,1.54,10.84,3.85,1.87,1.4,2.85,3.69,3.52,6.21,1.07-1.74,1.33-3.96.68-5.91-.64-1.94-2.18-3.57-4.07-4.33-1.55-.62-3.29-.68-4.78-1.43-1.85-.93-3.04-2.78-4.5-4.25-3.55-3.55-9.06-4.53-13.78-3.26Z"/>
          <g class="st10">
            <path class="st3" d="M208.65,60.27c.4-1.37.39-2.87-.06-4.23-.64-1.94-2.18-3.57-4.07-4.33-1.55-.62-3.29-.68-4.78-1.43-1.85-.94-3.03-2.78-4.5-4.25-3.55-3.55-9.06-4.53-13.78-3.26-1.51.4-2.95,1.03-4.28,1.85-.12-.12-.2-.26-.2-.43-.03-.42.37-.74.73-.97,1.35-.84,2.82-1.49,4.36-1.9,4.72-1.27,10.24-.29,13.78,3.26,1.47,1.47,2.65,3.31,4.5,4.25,1.49.75,3.24.81,4.78,1.43,1.9.76,3.43,2.39,4.07,4.33.62,1.85.41,3.96-.54,5.67Z"/>
          </g>
          <path class="st14" d="M208.51,61.1s-.06,0-.09,0c-.23-.03-.43-.21-.49-.43-.79-2.95-1.8-4.77-3.3-5.89-1.45-1.08-3.27-1.45-5.2-1.84-1.95-.39-3.97-.8-5.63-2.01-1.09-.8-1.9-1.86-2.68-2.89-.79-1.04-1.54-2.02-2.53-2.72-1.2-.84-2.83-1.27-4.59-1.2-1.82.07-3.57.63-4.89,1.11h-.01c-.41.15-.87.32-1.38.27-.62-.06-1.29-.53-1.34-1.27-.05-.84.74-1.34,1-1.5,1.4-.88,2.92-1.54,4.52-1.97,5.24-1.41,10.88-.07,14.36,3.41.45.45.87.93,1.28,1.39.96,1.1,1.87,2.14,3.07,2.74.76.38,1.6.57,2.5.78.74.17,1.51.34,2.24.64,2.07.83,3.72,2.58,4.42,4.69.7,2.11.42,4.51-.74,6.4-.11.18-.3.28-.51.28ZM184.37,42.92c1.86,0,3.59.5,4.91,1.42,1.14.8,1.98,1.9,2.79,2.97.77,1.01,1.49,1.95,2.44,2.65,1.45,1.06,3.25,1.42,5.16,1.81,1.97.4,4.01.8,5.68,2.05,1.72,1.29,2.67,3.2,3.28,5.02.42-1.3.43-2.74,0-4.05-.59-1.78-1.99-3.27-3.73-3.97-.65-.26-1.34-.42-2.06-.58-.92-.21-1.88-.43-2.77-.87-1.41-.71-2.44-1.89-3.43-3.02-.4-.45-.8-.92-1.22-1.34-3.18-3.18-8.37-4.4-13.21-3.11h0c-1.48.4-2.89,1.01-4.19,1.83-.45.28-.45.42-.45.43,0,.03.11.14.27.16.25.03.54-.08.86-.2h.01c1.4-.51,3.27-1.11,5.25-1.19.14,0,.28,0,.42,0ZM182.04,41.32h0,0Z"/>
        </g>
      </g>
      <g class="st11">
        <path class="st14" d="M189.33,62.18c-.86,1.49-2.52,2.38-4.21,2.7-1.65.3-3.47.08-4.79-.95-1.81-1.41-2.28-4.06-1.69-6.27.6-2.21,2.07-4.08,3.62-5.78-1.2-1.19-2.31-2.42-3.42-3.66-.51-.57-1.04-1.19-1.12-1.95-.01-.09-.01-.19,0-.28.03-.45.25-.82.57-1.08,1.53,2.71,3.56,5.13,5.96,7.1-.71.97-1.27,2.17-1.76,3.27-.5,1.09-.76,2.33-.52,3.51.24,1.18,1.04,2.28,2.18,2.66,1.38.47,2.95-.2,3.95-1.26.52-.55.92-1.19,1.25-1.86.71,1.14.66,2.69,0,3.85Z"/>
      </g>
      <path class="st0" d="M164.34,47.25c-.1-.46-.3-.88-.57-1.25"/>
      <g class="st11">
        <path class="st7" d="M170.77,48.63c-3.96.55-7.4-.71-7.69-2.82-.07-.48.04-.97.28-1.43,1.36,2.07,5.9,2.81,8.53,2.09,2.06-.57,3.89-1.89,5.1-3.64.22.3.36.64.41,1,.29,2.11-2.68,4.26-6.63,4.81Z"/>
      </g>
      <g class="st11">
        <path class="st14" d="M172.55,66.77c.42-.22.87-.64.74-1.1-.07-.26-.33-.44-.59-.51-.27-.06-.54-.03-.82,0-1.72.23-3.54.61-5.15-.04-.23-.09-.51-.21-.72-.07-.23.16-.2.51-.08.77.33.71,1.08,1.15,1.85,1.31,1.48.31,3.41.35,4.77-.37Z"/>
      </g>
      <g class="st11">
        <path class="st14" d="M161.32,52.4c.84.08,1.56.61,2.32.97.95.45,2.03.65,3.08.57,1.16-.09,2.27-.52,3.41-.78,1.14-.26,2.4-.34,3.42.23.56.31,1.05.97.78,1.54-.17.37-.58.55-.96.69-3.12,1.12-6.65,1.29-9.85.39-1.02-.29-2.15-.8-3.05-1.36-1.3-.81-.66-2.39.85-2.26Z"/>
      </g>
      <g class="st11">
        <path class="st14" d="M170.82,59.7c-1.6.18-3.21.31-4.82.46-.14.01-.3.04-.43.09-1.14-.18-2.23-.56-3.3-.99-.31-.12-.65-.25-.95-.11-.43.2-.44.86-.13,1.23.31.36.79.51,1.25.63,1.03.28,2.06.56,3.12.65.32.03.65.04.98.02,1.48.6,3.17.69,4.7.24.41-.12.83-.29,1.12-.6,1.24-1.29-.58-1.72-1.55-1.61Z"/>
      </g>
      <g>
        <path class="st14" d="M171.42,20.11c-.78-.74-1.87-1.16-3-1.16s-2.15.41-2.88,1.17c-.25.26-.31.6-.18.91.14.34.48.57.82.57.22,0,.42-.09.59-.26.41-.43,1.01-.66,1.67-.66s1.31.24,1.76.67c.17.16.37.24.58.24.36,0,.71-.24.85-.59.13-.32.05-.64-.21-.88Z"/>
        <g>
          <g>
            <g>
              <path class="st4" d="M153.94,20.81c0-1.01.19-1.98.62-2.89.74-1.58,1.91-2.59,3.68-2.88,1.39-.23,2.78-.31,4.18-.06.5.09,1.01.09,1.48.32.57.28,1.05.69,1.49,1.13.1.1.18.23.24.36.56,1.26.97,2.55.74,3.95-.25,1.52-.63,3.01-1.8,4.12-.99.93-2.15,1.53-3.54,1.55-.79.01-1.59.07-2.37-.04-1.26-.16-2.29-.82-3.15-1.74-.36-.38-.69-.8-1-1.21-.35-.46-.42-1.02-.48-1.58-.04-.34-.05-.68-.07-1.02Z"/>
              <path class="st4" d="M160.57,14.41c.88.09,1.82.09,2.73.29,1.32.3,2.35,1.07,2.81,2.39.26.74.48,1.51.58,2.28.18,1.4-.22,2.72-.77,4-.76,1.76-2.13,2.81-3.95,3.29-.8.21-1.62.18-2.44.15-.71-.02-1.41-.06-2.08-.35-1.14-.49-2.06-1.26-2.85-2.22-.7-.84-.97-1.77-.99-2.83-.03-1.22.11-2.39.59-3.52.55-1.29,1.42-2.29,2.71-2.85.58-.25,1.23-.36,1.86-.47.58-.1,1.17-.11,1.81-.17ZM153.94,20.81c.02.34.04.68.07,1.02.06.55.13,1.11.48,1.58.32.42.65.83,1,1.21.86.92,1.89,1.58,3.15,1.74.78.1,1.58.05,2.37.04,1.39-.02,2.56-.62,3.54-1.55,1.17-1.11,1.55-2.6,1.8-4.12.23-1.4-.18-2.69-.74-3.95-.06-.13-.14-.26-.24-.36-.44-.45-.92-.85-1.49-1.13-.47-.23-.98-.23-1.48-.32-1.4-.25-2.78-.17-4.18.06-1.77.29-2.94,1.3-3.68,2.88-.43.92-.61,1.88-.62,2.89Z"/>
            </g>
            <path class="st2" d="M160.05,25.06c-7.03,0-5.57-9.72,1.65-8.87,2.44.29,3.74,2.36,3.2,4.76-.29,1.28-.73,2.58-1.89,3.33-.21.13-1.39.97-2.96.78,0,0,0,.01,0,0Z"/>
            <g class="st12">
              <path class="st6" d="M156.87,22.29s.41-.28,1.04-.65c.64-.37,1.49-.84,2.38-1.26.88-.43,1.78-.8,2.47-1.07.69-.26,1.16-.41,1.16-.41,0,0-.41.28-1.04.65-.64.37-1.49.84-2.38,1.26-.88.43-1.78.8-2.47,1.07-.69.26-1.16.41-1.16.41Z"/>
              <path class="st6" d="M156.77,20s.31-.23.79-.53c.48-.29,1.14-.66,1.82-.98.68-.33,1.38-.6,1.91-.79.53-.19.91-.28.91-.28,0,0-.31.23-.79.53-.48.29-1.14.66-1.82.98-.68.33-1.38.6-1.91.79-.53.19-.91.28-.91.28Z"/>
              <path class="st6" d="M158.86,23.59s.25-.2.66-.46c.41-.25.96-.57,1.53-.83.57-.27,1.16-.49,1.62-.64.45-.15.77-.21.77-.21,0,0-.25.2-.66.46-.4.25-.96.57-1.53.83-.57.27-1.17.49-1.62.64-.45.15-.77.21-.77.21Z"/>
            </g>
          </g>
          <g>
            <g>
              <path class="st4" d="M183.05,20.81c0-1.01-.19-1.98-.62-2.89-.74-1.58-1.91-2.59-3.68-2.88-1.39-.23-2.77-.31-4.18-.06-.5.09-1.01.09-1.48.32-.57.28-1.05.69-1.5,1.13-.1.1-.18.23-.24.36-.56,1.26-.97,2.55-.74,3.95.25,1.52.63,3.01,1.8,4.12.99.93,2.15,1.53,3.54,1.55.79.01,1.59.07,2.37-.04,1.26-.16,2.29-.82,3.15-1.74.36-.38.69-.8,1-1.21.35-.46.42-1.02.48-1.58.04-.34.05-.68.07-1.02Z"/>
              <path class="st4" d="M178.22,14.58c.63.11,1.28.22,1.86.47,1.29.56,2.16,1.56,2.71,2.85.48,1.13.62,2.31.59,3.52-.02,1.06-.3,2-.99,2.83-.79.96-1.71,1.72-2.85,2.22-.67.29-1.37.33-2.08.35-.82.03-1.64.06-2.44-.15-1.82-.49-3.19-1.53-3.95-3.29-.55-1.28-.95-2.6-.77-4,.1-.77.32-1.54.58-2.28.46-1.33,1.49-2.1,2.81-2.39.9-.2,1.85-.2,2.73-.29.64.06,1.23.07,1.81.17ZM182.43,17.92c-.74-1.58-1.91-2.59-3.68-2.88-1.39-.23-2.77-.31-4.18-.06-.5.09-1.01.09-1.48.32-.57.28-1.05.69-1.5,1.13-.1.1-.18.23-.24.36-.56,1.26-.97,2.55-.74,3.95.25,1.52.63,3.01,1.8,4.12.99.93,2.15,1.53,3.54,1.55.79.01,1.59.07,2.37-.04,1.26-.16,2.29-.82,3.15-1.74.36-.38.69-.8,1-1.21.35-.46.42-1.02.48-1.58.04-.34.05-.68.07-1.02,0-1.01-.19-1.98-.62-2.89Z"/>
            </g>
            <path class="st2" d="M176.94,25.06c7.03,0,5.57-9.72-1.65-8.87-2.44.29-3.74,2.36-3.2,4.76.29,1.28.73,2.58,1.89,3.33.21.13,1.39.97,2.96.78,0,0,0,.01,0,0Z"/>
            <g class="st12">
              <path class="st6" d="M180.11,22.29s-.47-.14-1.16-.41c-.68-.27-1.59-.64-2.47-1.07-.88-.42-1.74-.89-2.38-1.26-.64-.37-1.04-.65-1.04-.65,0,0,.47.14,1.16.41.69.27,1.59.64,2.47,1.07.88.42,1.74.89,2.38,1.26.64.37,1.04.65,1.04.65Z"/>
              <path class="st6" d="M180.21,20s-.37-.09-.91-.28c-.53-.19-1.23-.47-1.91-.79-.68-.32-1.34-.69-1.82-.98-.48-.29-.79-.53-.79-.53,0,0,.37.09.91.28.53.19,1.23.47,1.91.79.68.32,1.34.69,1.82.98.48.29.79.53.79.53Z"/>
              <path class="st6" d="M178.12,23.59s-.32-.06-.77-.21c-.45-.15-1.05-.37-1.62-.64-.57-.26-1.12-.58-1.53-.83-.4-.25-.66-.46-.66-.46,0,0,.32.06.77.21.45.15,1.05.37,1.62.64.57.26,1.12.58,1.53.83.4.25.66.46.66.46Z"/>
            </g>
          </g>
        </g>
      </g>
      <rect class="st14" x="182.56" y="18.11" width="6.82" height="1.06" transform="translate(1.94 51.3) rotate(-15.79)"/>
    </g>
    <rect class="st14" x="152.09" y="17.92" width="1.04" height="3.24" transform="translate(93.87 161.74) rotate(-74.85)"/>
  </g>
  <path class="st6" d="M62.78,98.85s1.88,14.08-1.03,25.06c-2.35,9.01-7.79,15.86-17.84,15.3-9.39-.66-14.27-7.7-16.33-16.43-2.44-10.79-.38-24.03-.38-24.03l9.2,1.5s-1.78,11.26.28,20.46c1.03,4.51,2.91,8.82,7.79,9.2,5.07.28,7.13-3.85,8.26-8.35,2.44-9.39.84-21.4.84-21.4l9.2-1.31Z"/>
  <path class="st6" d="M100.29,109.93l-8.92,2.53c-1.03-3.38-4.79-5.26-7.89-3.19-3.66,2.35-5.26,5.07-5.54,5.63.47,8.07.38,16.24-.19,24.31l-9.29-.66c.66-8.92.75-18.02-.19-26.94-.28-3.85-1.41-10.61-1.41-10.61l9.11-1.5s.28,1.41.56,3.29c.56-.47,1.22-.84,1.88-1.31,8.64-5.63,19.24-.85,21.87,8.45Z"/>
  <path class="st6" d="M130.29,123.92c.66,2.44,1.88,4.41,3.94,5.35,4.04,1.78,9.48.09,12.58-4.69l7.79,5.07c-5.82,9.11-16.52,11.55-24.22,8.07-5.26-2.35-8.82-7.98-9.67-14.46-1.22-9.29,3-19.9,13.61-23.19,3.75-1.13,7.04-.94,9.76.09,7.23,2.63,10.33,10.7,6.85,16.8-2.35,4.22-8.54,8.35-20.65,6.95ZM130.85,114.62c3.66.56,6.57.38,8.73-.19,1.6-.47,2.72-1.03,3.29-1.97.38-.66.19-1.5-.19-2.07-.85-1.6-3-2.25-5.63-1.41-3.1.94-5.07,3.1-6.2,5.63Z"/>
  <path class="st6" d="M164.98,123.92c.66,2.44,1.88,4.41,3.94,5.35,4.04,1.78,9.48.09,12.58-4.69l7.79,5.07c-5.82,9.11-16.52,11.55-24.22,8.07-5.26-2.35-8.82-7.98-9.67-14.46-1.22-9.29,3-19.9,13.61-23.19,3.75-1.13,7.04-.94,9.76.09,7.23,2.63,10.33,10.7,6.85,16.8-2.35,4.22-8.54,8.35-20.65,6.95ZM165.55,114.62c3.66.56,6.57.38,8.73-.19,1.6-.47,2.72-1.03,3.29-1.97.38-.66.19-1.5-.19-2.07-.84-1.6-3-2.25-5.63-1.41-3.1.94-5.07,3.1-6.2,5.63Z"/>
  <path class="st6" d="M200.3,111.35c-.1,1.01-.2,1.74.26,2.2.36.46,1,.56,1.64.66,2.1.48,4.57.41,6.95.52,6.77.43,11.96,2.58,12.45,9.53.81,11.08-10.02,16.01-18.98,14.74-6.85-.98-11.84-5.41-11.42-11.45l9.05.63c0,.46.36.74.81.92.82.47,1.73.75,2.83.94,3.75.49,8.97-.47,8.64-5.14,0-.46-.27-.55-.63-.65-.64-.19-1.37-.29-2.19-.39-2.56-.21-5.31-.14-7.86-.53-3.84-.49-7.03-1.98-8.83-4.75-1.26-1.84-2.06-4.41-1.76-8.07.51-5.48,5.39-9.74,11.63-11.06,8.8-1.84,19.1,2.28,19.18,13.35l-9.06.1c.04-4.57-4.71-5.35-8.28-4.56-1.37.26-2.57.71-3.49,1.52-.46.36-.92.81-.93,1.46Z"/>
  <path class="st1" d="M17.54,95.53h11.88l.05-9.29h-11.93v-18.62l-9.21,6.87-.02,11.76H1.54v9.29h6.75l-.05,32.45c-.07,2.73.45,6.45,3.05,9.77,3.36,4.29,9.04,6.47,16.88,6.47v-8.73c-3.33,0-7.09-.36-9.07-2.83-1.04-1.3-1.44-2.97-1.59-4.28h.03v-32.86Z"/>
  <path class="st16" d="M112.25,95.53h11.88l.13-9.29h-12.01v-18.62l-9.21,6.87-.02,11.76h-6.77v9.29h6.75l-.05,32.45c-.07,2.73.45,6.45,3.05,9.77,3.36,4.29,9.04,6.47,16.88,6.47v-8.73c-3.33,0-7.09-.36-9.07-2.83-1.04-1.3-1.44-2.97-1.59-4.28h.03v-32.86Z"/>
  <g>
    <g>
      <path class="st1" d="M51.13,160.38c0,3.03-1.48,4.45-3.88,4.45s-3.88-1.42-3.88-4.45,1.5-4.43,3.88-4.43,3.88,1.4,3.88,4.43ZM49.93,160.38c0-2.33-.98-3.36-2.68-3.36s-2.68,1.03-2.68,3.36.98,3.38,2.68,3.38,2.68-1.02,2.68-3.38Z"/>
      <path class="st1" d="M60.75,159.22v4.93c0,.33-.26.59-.59.59s-.59-.26-.59-.59v-4.69c0-1.46-.42-2.45-2.22-2.45s-2.45,1.11-2.45,2.58v4.56c0,.33-.26.59-.59.59s-.59-.26-.59-.59v-7.49c0-.33.26-.59.59-.59s.59.26.59.59v.59c.35-.7,1.25-1.29,2.45-1.29,2.84,0,3.4,1.7,3.4,3.27Z"/>
      <path class="st1" d="M66.95,155.95c1.64,0,2.55.87,2.84,1.27.09.13.13.22.13.35,0,.31-.24.54-.54.54-.18,0-.31-.07-.44-.22-.28-.31-.78-.87-1.99-.87-1.7,0-2.6,1.09-2.6,3.36s.9,3.38,2.6,3.38c1.07,0,1.72-.48,2.14-.79.13-.09.22-.13.35-.13.29,0,.53.24.53.54,0,.17-.06.3-.24.46-.41.33-1.29,1-2.79,1-2.38,0-3.8-1.42-3.8-4.45s1.42-4.43,3.8-4.43Z"/>
      <path class="st1" d="M75.83,155.95c2.95,0,3.53,2.34,3.53,3.6,0,.54,0,1.18-.74,1.18h-5.39c0,1.83,1.05,3.01,2.79,3.01,1.07,0,1.7-.41,2.21-.79.11-.07.18-.11.33-.11.3,0,.54.24.54.54,0,.2-.09.31-.2.42-.28.28-1.24,1.03-2.88,1.03-2.46,0-3.99-1.35-3.99-4.45,0-2.84,1.4-4.43,3.8-4.43ZM75.83,157.02c-1.61,0-2.49,1.03-2.6,2.68h4.97c0-1.33-.46-2.68-2.36-2.68Z"/>
      <path class="st1" d="M88.05,156.65v4.82c0,1.2.39,2.23,2.25,2.23s2.25-1.03,2.25-2.23v-4.82c0-.33.28-.59.61-.59.31,0,.57.26.57.59v4.82c0,1.75-.57,3.36-3.43,3.36s-3.43-1.61-3.43-3.36v-4.82c0-.33.26-.59.59-.59.31,0,.59.26.59.59Z"/>
      <path class="st1" d="M97.87,156.65v.59c.35-.63,1.27-1.29,2.51-1.29,2.4,0,3.86,1.4,3.86,4.43s-1.46,4.45-3.86,4.45c-1.24,0-2.12-.66-2.51-1.29v4.17c0,.31-.28.59-.59.59s-.59-.28-.59-.59v-11.06c0-.33.28-.59.59-.59s.59.26.59.59ZM100.38,163.76c1.7,0,2.66-1.07,2.66-3.38s-1-3.36-2.69-3.36c-1.37,0-2.51.96-2.51,3.36s1.11,3.38,2.55,3.38Z"/>
      <path class="st1" d="M114.02,160.38c0,3.03-1.48,4.45-3.88,4.45s-3.88-1.42-3.88-4.45,1.5-4.43,3.88-4.43,3.88,1.4,3.88,4.43ZM112.82,160.38c0-2.33-.98-3.36-2.68-3.36s-2.68,1.03-2.68,3.36.98,3.38,2.68,3.38,2.68-1.02,2.68-3.38Z"/>
      <path class="st1" d="M123.64,159.22v4.93c0,.33-.26.59-.59.59s-.59-.26-.59-.59v-4.69c0-1.46-.42-2.45-2.22-2.45s-2.45,1.11-2.45,2.58v4.56c0,.33-.26.59-.59.59s-.59-.26-.59-.59v-7.49c0-.33.26-.59.59-.59s.59.26.59.59v.59c.35-.7,1.25-1.29,2.45-1.29,2.84,0,3.4,1.7,3.4,3.27Z"/>
      <path class="st1" d="M132.67,158c-.18.2-.31.26-.48.26-.3,0-.54-.24-.54-.54,0-.13.04-.22.09-.31.52-.81,1.51-1.46,3.06-1.46,2.14,0,3.32,1.26,3.32,3.14v5.08c0,.31-.26.57-.57.57s-.57-.26-.57-.57v-.66c-.46.87-1.53,1.33-2.64,1.33-1.96,0-3.19-.94-3.19-2.64s1.24-2.6,3.23-2.6h2.6v-.5c0-1.26-.83-2.03-2.18-2.03-.98,0-1.57.29-2.14.94ZM136.99,161.39v-.78h-2.6c-1.2,0-2.03.5-2.03,1.57,0,.96.66,1.57,2.1,1.57,1.29,0,2.53-.79,2.53-2.36Z"/>
      <path class="st1" d="M146.68,154.27c0-.31.28-.59.59-.59.33,0,.59.28.59.59v1.94h1.2c.31,0,.55.24.55.55s-.24.55-.55.55h-1.2v5.09c0,.79.44,1.22,1.07,1.22.31,0,.57.24.57.55s-.26.55-.57.55c-1.46,0-2.25-.98-2.25-2.33v-5.09h-.72c-.31,0-.55-.24-.55-.55s.24-.55.55-.55h.72v-1.94Z"/>
      <path class="st1" d="M151.98,153.62c0-.54.26-.74.7-.74s.7.2.7.74c0,.44-.26.7-.7.7s-.7-.26-.7-.7ZM153.27,164.14c0,.33-.26.59-.59.59s-.59-.26-.59-.59v-7.49c0-.33.26-.59.59-.59s.59.26.59.59v7.49Z"/>
      <path class="st1" d="M169.11,159.22v4.93c0,.33-.26.59-.59.59s-.59-.26-.59-.59v-4.69c0-1.46-.52-2.45-2.31-2.45-1.59,0-2.31.85-2.31,2.21v4.93c0,.33-.26.59-.59.59s-.59-.26-.59-.59v-4.69c0-1.46-.46-2.45-2.27-2.45s-2.27,1.03-2.27,2.58v4.56c0,.33-.26.59-.59.59s-.59-.26-.59-.59v-7.49c0-.33.26-.59.59-.59s.59.26.59.59v.59c.31-.68,1.2-1.29,2.4-1.29,1.51,0,2.49.55,2.93,1.29.46-.72,1.27-1.29,2.7-1.29,2.84,0,3.49,1.7,3.49,3.27Z"/>
      <path class="st1" d="M175.32,155.95c2.95,0,3.53,2.34,3.53,3.6,0,.54,0,1.18-.74,1.18h-5.39c0,1.83,1.05,3.01,2.79,3.01,1.07,0,1.7-.41,2.21-.79.11-.07.18-.11.33-.11.3,0,.54.24.54.54,0,.2-.09.31-.2.42-.28.28-1.24,1.03-2.88,1.03-2.46,0-3.99-1.35-3.99-4.45,0-2.84,1.4-4.43,3.8-4.43ZM175.32,157.02c-1.61,0-2.49,1.03-2.6,2.68h4.97c0-1.33-.46-2.68-2.36-2.68Z"/>
    </g>
    <polygon class="st1" points="39.38 157.73 40.08 159.16 41.67 159.39 40.52 160.51 40.79 162.08 39.38 161.34 37.96 162.08 38.23 160.51 37.09 159.39 38.67 159.16 39.38 157.73"/>
    <polygon class="st1" points="184.22 157.73 184.93 159.16 186.51 159.39 185.37 160.51 185.64 162.08 184.22 161.34 182.8 162.08 183.07 160.51 181.93 159.39 183.51 159.16 184.22 157.73"/>
  </g>
  <g>
    <path class="st6" d="M220.45,99.37c-1.84,0-3.34-1.5-3.34-3.34s1.5-3.34,3.34-3.34,3.34,1.5,3.34,3.34-1.5,3.34-3.34,3.34ZM220.45,93.13c-1.6,0-2.9,1.3-2.9,2.9s1.3,2.9,2.9,2.9,2.9-1.3,2.9-2.9-1.3-2.9-2.9-2.9Z"/>
    <path class="st6" d="M219.82,97.68c0,.1-.08.18-.18.18s-.18-.08-.18-.18v-3.29c0-.1.08-.18.18-.18h1.07c.6,0,1.03.45,1.03,1.03s-.38,1-.96,1.03l.98,1.31s.04.08.04.11c0,.1-.08.18-.18.18-.05,0-.11-.02-.16-.09l-1.09-1.52h-.54v1.42ZM219.82,95.92h.9c.38,0,.64-.31.64-.69s-.27-.69-.66-.69h-.88v1.39Z"/>
  </g>
</svg>