<?xml version="1.0" encoding="UTF-8"?>
<svg id="Layer_1" xmlns="http://www.w3.org/2000/svg" version="1.1" viewBox="0 0 528 808">
  <!-- Generator: Adobe Illustrator 29.3.1, SVG Export Plug-In . SVG Version: 2.1.0 Build 151)  -->
  <defs>
    <style>
      .st0 {
        fill: #fff;
        fill-rule: evenodd;
      }
    </style>
  </defs>
  <path class="st0" d="M455,333l-12.9,94h-154.7v329h-94v-329H52.4v-94h141v-86.2c0-119.5,73.4-196.8,187.1-196.8s79.1,2.6,96.6,4.9l-1.4,89h-72.3c-2,0-49.1-3.7-83.1,27.5-21.9,20.1-33,48.9-33,85.7v75.8h167.6l.1.1ZM352,206.3c18.5-17.3,47.4-15.4,49.5-15.3h120.6l2.6-174-18.1-4.5c-11.7-2.9-47.3-9.5-126-9.5-140,0-234.1,98-234.1,243.8v39.2H5.4v188h141v329h188v-329h148.6l25.8-188h-174.4v-28.8c0-22.9,5.9-40,17.5-50.9h.1Z"/>
</svg>