<?xml version="1.0" encoding="UTF-8"?>
<svg id="Layer_1" xmlns="http://www.w3.org/2000/svg" version="1.1" viewBox="0 0 738 740">
  <!-- Generator: Adobe Illustrator 29.3.1, SVG Export Plug-In . SVG Version: 2.1.0 Build 151)  -->
  <defs>
    <style>
      .st0 {
        fill-rule: evenodd;
      }

      .st0, .st1 {
        fill: #fff;
      }
    </style>
  </defs>
  <path class="st0" d="M369,570c110.5,0,200-89.5,200-200s-89.5-200-200-200-200,89.5-200,200,89.5,200,200,200ZM369,503.3c73.6,0,133.3-59.7,133.3-133.3s-59.7-133.3-133.3-133.3-133.3,59.7-133.3,133.3,59.7,133.3,133.3,133.3Z"/>
  <path class="st1" d="M569,136.7c-18.4,0-33.3,14.9-33.3,33.3s14.9,33.3,33.3,33.3,33.3-14.9,33.3-33.3-14.9-33.3-33.3-33.3Z"/>
  <path class="st0" d="M24.1,112.5C2.3,155.3,2.3,211.3,2.3,323.3v93.3c0,112,0,168,21.8,210.8,19.2,37.6,49.8,68.2,87.4,87.4,42.8,21.8,98.8,21.8,210.8,21.8h93.3c112,0,168,0,210.8-21.8,37.6-19.2,68.2-49.8,87.4-87.4,21.8-42.8,21.8-98.8,21.8-210.8v-93.3c0-112,0-168-21.8-210.8-19.2-37.6-49.8-68.2-87.4-87.4C583.7,3.3,527.7,3.3,415.7,3.3h-93.3c-112,0-168,0-210.8,21.8-37.6,19.2-68.2,49.8-87.4,87.4h-.1ZM415.7,70h-93.3c-57.1,0-95.9,0-125.9,2.5-29.2,2.4-44.2,6.7-54.6,12-25.1,12.8-45.5,33.2-58.3,58.3-5.3,10.4-9.6,25.4-12,54.6-2.5,30-2.5,68.8-2.5,125.9v93.3c0,57.1,0,95.9,2.5,125.9,2.4,29.2,6.7,44.2,12,54.6,12.8,25.1,33.2,45.5,58.3,58.3,10.4,5.3,25.4,9.6,54.6,12,30,2.4,68.8,2.5,125.9,2.5h93.3c57.1,0,95.9,0,125.9-2.5,29.2-2.4,44.2-6.7,54.6-12,25.1-12.8,45.5-33.2,58.3-58.3,5.3-10.4,9.6-25.4,12-54.6,2.4-30,2.5-68.8,2.5-125.9v-93.3c0-57.1,0-95.9-2.5-125.9-2.4-29.2-6.7-44.2-12-54.6-12.8-25.1-33.2-45.5-58.3-58.3-10.4-5.3-25.4-9.6-54.6-12-30-2.5-68.8-2.5-125.9-2.5h0Z"/>
</svg>