<?xml version="1.0" encoding="UTF-8"?>
<svg id="Layer_1" data-name="Layer 1" xmlns="http://www.w3.org/2000/svg" viewBox="0 0 40 40">
  <rect width="40" height="40" style="fill: #666363;"/>
  <path d="M33.93,16.58c-.1-.31-.37-.54-.7-.59l-8.61-1.32-3.86-8.22c-.14-.31-.45-.5-.79-.5s-.65.2-.79.5l-3.86,8.22-8.61,1.32c-.32.05-.59.28-.7.59-.1.31-.03.65.2.89l6.25,6.41-1.48,9.06c-.05.33.09.66.36.86.15.11.33.16.5.16.15,0,.29-.04.42-.11l7.69-4.25,7.69,4.25c.13.07.28.11.42.11.18,0,.35-.05.5-.16.27-.19.41-.53.36-.86l-1.48-9.06,6.25-6.41c.23-.24.31-.58.2-.89Z" style="fill: #fff;"/>
</svg>