<?xml version="1.0" encoding="UTF-8"?>
<svg id="Layer_1" xmlns="http://www.w3.org/2000/svg" version="1.1" viewBox="0 0 29.8 30.4">
  <!-- Generator: Adobe Illustrator 29.3.1, SVG Export Plug-In . SVG Version: 2.1.0 Build 151)  -->
  <defs>
    <style>
      .st0 {
        fill: #666363;
      }
    </style>
  </defs>
  <path class="st0" d="M28.8,11.9c0-.3-.4-.5-.7-.6l-8.6-1.3L15.7,1.7c-.1-.3-.5-.5-.8-.5s-.6.2-.8.5l-3.9,8.2-8.6,1.3c-.3,0-.6.3-.7.6,0,.3,0,.6.2.9l6.2,6.4-1.5,9.1c0,.3,0,.7.4.9.1.1.3.2.5.2s.3,0,.4-.1l7.7-4.2,7.7,4.2c.1,0,.3.1.4.1s.4,0,.5-.2c.3-.2.4-.5.4-.9l-1.5-9.1,6.2-6.4c.2-.2.3-.6.2-.9h0Z"/>
</svg>