<?xml version="1.0" encoding="UTF-8"?>
<svg id="Layer_1" xmlns="http://www.w3.org/2000/svg" version="1.1" viewBox="0 0 594 689">
  <!-- Generator: Adobe Illustrator 29.3.1, SVG Export Plug-In . SVG Version: 2.1.0 Build 151)  -->
  <defs>
    <style>
      .st0 {
        fill: #fff;
      }
    </style>
  </defs>
  <path class="st0" d="M589.55,219.65l-56.92,15.09c.07-1.71.01-3.38-.46-5.05-32.83-117.28-126.26-170.38-245.09-165-148.13,6.71-212.75,107.11-222.45,245.55-6.29,89.83,10.13,205.96,83.51,266.46,87.36,72.02,270.89,68.94,335.5-33.45,34.79-55.14,23.7-127.15-33.54-161.51-2.22-.32-1.17.32-1.46,1.5-7.85,32.15-10.02,54.77-29.61,83.4-70.16,102.54-267.49,60.88-246.13-74.13,14.68-92.8,123.7-104.06,199.22-96.77,6.15.59,12.39,2.09,18.5,2.99-4.54-40.63-30.34-71.76-72.51-74.98-34.69-2.66-69.44,5.08-89.48,35.53l-1.47.5-47.12-32.03c-.84-1.55,3.03-6.32,4.17-7.92,49.44-69.89,172.61-76.26,228.93-12.1,26.05,29.68,35.83,70.18,38.68,108.82,95.37,37.47,136.11,142.91,93.49,236.38-70.96,155.61-319.54,170.32-438.7,66.33C-13.29,514.61-22.65,269.91,52.46,138.07,120.2,19.14,259.34-15.7,387.45,14.42c103.71,24.38,177.4,102.57,202.1,205.23h0ZM392.63,359.74c-32.6-5.88-69.16-9.1-102.06-3.56-32.13,5.41-66.62,26.24-59.69,63.8,8.49,46.08,79.25,52.48,113.96,35.46,35.33-17.32,44.11-60.02,47.79-95.71h0Z"/>
</svg>