<?xml version="1.0" encoding="UTF-8"?>
<svg id="Layer_1" xmlns="http://www.w3.org/2000/svg" version="1.1" viewBox="0 0 594 689">
  <!-- Generator: Adobe Illustrator 29.3.1, SVG Export Plug-In . SVG Version: 2.1.0 Build 151)  -->
  <path d="M589.5,219.6l-56.9,15.1c0-1.7,0-3.4-.5-5.1-32.8-117.3-126.3-170.4-245.1-165-148.1,6.7-212.8,107.1-222.4,245.6-6.3,89.8,10.1,206,83.5,266.5,87.4,72,270.9,68.9,335.5-33.5,34.8-55.1,23.7-127.1-33.5-161.5-2.2-.3-1.2.3-1.5,1.5-7.9,32.1-10,54.8-29.6,83.4-70.2,102.5-267.5,60.9-246.1-74.1,14.7-92.8,123.7-104.1,199.2-96.8,6.1.6,12.4,2.1,18.5,3-4.5-40.6-30.3-71.8-72.5-75-34.7-2.7-69.4,5.1-89.5,35.5l-1.5.5-47.1-32c-.8-1.6,3-6.3,4.2-7.9,49.4-69.9,172.6-76.3,228.9-12.1,26,29.7,35.8,70.2,38.7,108.8,95.4,37.5,136.1,142.9,93.5,236.4-71,155.6-319.5,170.3-438.7,66.3C-13.3,514.6-22.6,269.9,52.5,138.1,120.2,19.1,259.3-15.7,387.5,14.4c103.7,24.4,177.4,102.6,202.1,205.2h0ZM392.6,359.7c-32.6-5.9-69.2-9.1-102.1-3.6-32.1,5.4-66.6,26.2-59.7,63.8,8.5,46.1,79.2,52.5,114,35.5,35.3-17.3,44.1-60,47.8-95.7h0Z"/>
</svg>