<?xml version="1.0" encoding="UTF-8"?>
<svg id="Layer_1" xmlns="http://www.w3.org/2000/svg" xmlns:xlink="http://www.w3.org/1999/xlink" version="1.1" viewBox="0 0 40 27.2">
  <!-- Generator: Adobe Illustrator 29.3.1, SVG Export Plug-In . SVG Version: 2.1.0 Build 151)  -->
  <defs>
    <style>
      .st0 {
        fill: #3f3f3f;
      }

      .st1 {
        fill: #db2c2c;
      }

      .st2 {
        fill: #bad3cf;
      }

      .st3 {
        fill: #232222;
      }

      .st4 {
        fill: #369933;
      }

      .st5 {
        fill: #cc2525;
      }

      .st6 {
        fill: #cfe5e2;
      }

      .st7 {
        fill: #1c8417;
      }

      .st8 {
        fill: #fff;
      }

      .st9 {
        fill: #b70808;
      }

      .st10 {
        fill: #49a948;
      }

      .st11 {
        fill: #4c4b4b;
      }

      .st12 {
        fill: #e73b36;
      }
    </style>
  </defs>
  <path class="st11" d="M.4,18v5.2c0,2.1,1.7,3.7,3.8,3.7h31.6c2.1,0,3.8-1.5,3.8-3.7v-5.2H.4Z"/>
  <path class="st10" d="M35.8.3H4.2C2.1.3.4,1.8.4,4v5.2h39.2V4c0-2.1-1.7-3.7-3.8-3.7Z"/>
  <rect class="st8" x=".4" y="9.2" width="39.2" height="8.8"/>
  <path class="st0" d="M35.7,26.8c2.1,0,3.9-1.5,3.9-3.7v-5.2h-14.3l10.4,8.8Z"/>
  <path class="st4" d="M35.8.3H4.2l10.5,8.8h24.9V4c0-2.1-1.7-3.7-3.8-3.7Z"/>
  <polygon class="st6" points="25.4 18 39.6 18 39.6 9.2 14.6 9.2 25.4 18"/>
  <path class="st7" d="M35.8.3H4.2l29.2,8.8h6.1V4c0-2.1-1.7-3.7-3.8-3.7Z"/>
  <polygon class="st2" points="39.6 10.9 39.6 9.2 33.1 9.2 39.6 10.9"/>
  <path class="st3" d="M39.6,23.1c0,2.3-1.7,3.7-3.8,3.7H4.2c-2.1,0-3.8-1.6-3.8-3.8"/>
  <path class="st12" d="M9.9.3h-5.7C2.1.3.4,1.8.4,4v5.1H.4v9.1H.4v5.1c0,2.1,1.7,3.6,3.8,3.6h5.7V.3Z"/>
  <polygon class="st1" points="9.9 9.2 .4 9.2 .4 9.1 .4 18.1 .4 18 9.9 18 9.9 9.2"/>
  <path class="st5" d="M.4,18v5.2c0,2.1,1.7,3.6,3.8,3.6h5.7v-8.8H.4Z"/>
  <path class="st9" d="M.4,23.1c0,2.5,1.7,3.8,3.8,3.8h5.7v-3.8H.4Z"/>
  <polygon class="st5" points="9.9 .3 4.2 .3 9.9 5.1 9.9 .3"/>
  <polygon class="st9" points="9.9 .3 4.2 .3 9.9 1.9 9.9 .3"/>
</svg>