<?xml version="1.0" encoding="UTF-8"?>
<svg id="Layer_1" xmlns="http://www.w3.org/2000/svg" version="1.1" viewBox="0 0 800 606">
  <!-- Generator: Adobe Illustrator 29.3.1, SVG Export Plug-In . SVG Version: 2.1.0 Build 151)  -->
  <defs>
    <style>
      .st0 {
        fill-rule: evenodd;
      }
    </style>
  </defs>
  <path class="st0" d="M316.5,140.7c-10.3-5.9-23-5.9-33.3.1s-16.6,16.9-16.6,28.8v266.7c0,11.9,6.3,22.9,16.6,28.8,10.3,6,23,6,33.3.1l233.3-133.3c10.4-5.9,16.8-17,16.8-28.9s-6.4-23-16.8-28.9l-233.3-133.3h0ZM466.1,303l-132.8,75.9v-151.8l132.8,75.9h0Z"/>
  <path class="st0" d="M0,303C0,178,0,115.5,31.8,71.7c10.3-14.1,22.7-26.6,36.9-36.9C112.5,3,175,3,300,3h200c125,0,187.5,0,231.3,31.8,14.1,10.3,26.6,22.7,36.9,36.9,31.8,43.8,31.8,106.3,31.8,231.3s0,187.5-31.8,231.3c-10.3,14.1-22.7,26.6-36.9,36.9-43.8,31.8-106.3,31.8-231.3,31.8h-200c-125,0-187.5,0-231.3-31.8-14.1-10.3-26.6-22.7-36.9-36.9C0,490.5,0,428,0,303ZM300,69.7h200c64,0,106.6,0,138.9,3.6,31.1,3.4,44.6,9.2,53.2,15.5,8.5,6.2,16,13.6,22.1,22.1,6.3,8.6,12.1,22.1,15.5,53.2,3.5,32.3,3.6,74.9,3.6,138.9s0,106.6-3.6,138.9c-3.4,31.1-9.2,44.6-15.5,53.2-6.2,8.5-13.6,16-22.1,22.1-8.6,6.3-22.1,12.1-53.2,15.5-32.3,3.5-74.9,3.6-138.9,3.6h-200c-64,0-106.6,0-138.9-3.6-31.1-3.4-44.6-9.2-53.2-15.5-8.5-6.2-16-13.6-22.1-22.1-6.3-8.6-12.1-22.1-15.5-53.2-3.5-32.3-3.6-74.9-3.6-138.9s0-106.6,3.6-138.9c3.4-31.1,9.2-44.6,15.5-53.2,6.2-8.5,13.6-16,22.1-22.1,8.6-6.3,22.1-12.1,53.2-15.5,32.3-3.5,74.9-3.6,138.9-3.6h0Z"/>
</svg>